<?xml version="1.0" encoding="utf-8"?>
<!-- Generator: Adobe Illustrator 28.0.0, SVG Export Plug-In . SVG Version: 6.00 Build 0)  -->
<svg version="1.1" xmlns="http://www.w3.org/2000/svg" xmlns:xlink="http://www.w3.org/1999/xlink" x="0px" y="0px"
	 viewBox="0 0 375 85" style="enable-background:new 0 0 375 85;" xml:space="preserve">
<style type="text/css">
	.st0{fill:#1A1818;}
	.st1{fill:#E92F25;}
	.st2{display:none;fill:#1D1D1B;}
	.st3{fill:#1D1D1B;}
</style>
<g id="Слой_1">
	<path class="st0" d="M20.5,7c5.3,0,10.8,1.8,14.7,5.5l-4.4,7.2c-2.7-2.4-6.2-3.8-9.8-4c-7.8,0-11.1,5.5-11.1,11.2
		c0,5.8,3.5,11.8,11.1,11.8c3.9,0,7.7-2.1,10.4-4.8l4.9,7c-2,2.1-4.5,3.8-7.2,4.9s-5.6,1.7-8.6,1.6C7.9,47.5,0,38.8,0,27.2
		C0,15.8,8.4,7,20.5,7z"/>
	<path class="st0" d="M46.2,7.7h9.6v15.7H70V7.7h9.6v39.2H70V31.5H55.8v15.3h-9.6C46.2,46.8,46.2,7.7,46.2,7.7z"/>
	<path class="st0" d="M159,7c5.3,0,10.8,1.8,14.7,5.5l-4.4,7.2c-2.7-2.4-6.2-3.8-9.8-4c-7.8,0-11.1,5.5-11.1,11.2
		c0,5.8,3.5,11.8,11.1,11.8c3.9,0,7.7-2.1,10.4-4.8l4.9,7c-2,2.1-4.5,3.8-7.2,4.9c-2.7,1.1-5.6,1.7-8.6,1.6
		c-12.6,0-20.5-8.7-20.5-20.3C138.5,15.8,146.9,7,159,7z"/>
	<path class="st0" d="M202.4,7c12.2,0,20.5,8.8,20.5,20c0,11.5-8.3,20.5-20.5,20.5s-20.5-9-20.5-20.5C181.9,15.8,190.2,7,202.4,7z
		 M202.4,38.7c6.2,0,10.6-5,10.6-11.7c0-6.4-4.4-11.2-10.6-11.2s-10.6,4.8-10.6,11.2C191.8,33.7,196.2,38.7,202.4,38.7L202.4,38.7z"
		/>
	<path class="st0" d="M234.3,7.7h9.6v31h16v8.2h-25.6L234.3,7.7L234.3,7.7z"/>
	<path class="st0" d="M280.6,7.7h10.1L304,46.8h-9.9l-2.4-8.2h-12.2l-2.4,8.2h-9.9L280.6,7.7L280.6,7.7z M289.5,31l-2.2-7.6
		c-0.7-2.5-1.6-6.7-1.6-6.7h-0.1c0,0-0.9,4.3-1.6,6.7l-2.2,7.6C281.7,30.9,289.5,30.9,289.5,31z"/>
	<path class="st0" d="M318.1,15.9h-11.9V7.7h33.4v8.2h-11.9v30.9h-9.6C318.1,46.8,318.1,15.9,318.1,15.9z"/>
	<path class="st0" d="M349.1,7.7h24.5v8.2h-15V23h11.9v8.2h-11.9v7.4h15.7v8.2h-25.3V7.7z"/>
	<path class="st0" d="M80.4,27.5c-0.1-5.6,1.3-11,4.1-15.8C87.2,6.8,91.2,2.8,96,0C84.5,4.7,76.4,15.2,76.4,27.5S84.5,50.2,96,55
		c-4.8-2.8-8.8-6.8-11.5-11.6C81.7,38.5,80.3,33,80.4,27.5L80.4,27.5z"/>
	<path class="st0" d="M123.1,0c4.8,2.8,8.7,6.9,11.4,11.7c2.7,4.8,4.2,10.3,4.2,15.8s-1.4,11-4.2,15.8c-2.7,4.8-6.7,8.8-11.4,11.7
		c11.5-4.7,19.6-15.2,19.6-27.5S134.6,4.7,123.1,0L123.1,0z"/>
	<path class="st1" d="M130.9,27.5c0-4.2-1.2-8.3-3.6-11.8c-2.3-3.5-5.7-6.2-9.6-7.9c-3.9-1.6-8.2-2-12.3-1.2
		c-4.1,0.8-7.9,2.9-10.9,5.8c-3,3-5,6.8-5.8,10.9c-0.8,4.1-0.4,8.4,1.2,12.3c1.6,3.9,4.3,7.2,7.9,9.6c3.5,2.3,7.6,3.6,11.8,3.6
		c5.7,0,11.1-2.2,15.1-6.2C128.6,38.6,130.9,33.1,130.9,27.5L130.9,27.5z M120.8,29.5l-13.7,9.1c-0.4,0.3-0.9,0.4-1.4,0.5
		c-0.5,0-1-0.1-1.4-0.3c-0.4-0.2-0.8-0.6-1.1-1c-0.3-0.4-0.4-0.9-0.4-1.4V18.1c0-0.5,0.1-1,0.4-1.4c0.3-0.4,0.6-0.8,1.1-1
		s0.9-0.3,1.4-0.3c0.5,0,1,0.2,1.4,0.5l13.7,9.1c0.4,0.2,0.7,0.6,0.9,1c0.2,0.4,0.3,0.8,0.3,1.3s-0.1,0.9-0.3,1.3
		C121.4,28.9,121.1,29.2,120.8,29.5C120.8,29.5,120.8,29.5,120.8,29.5z"/>
</g>
<g id="Слой_2">
	<g>
		<path class="st2" d="M234.2,68.7h5c1.5,0,2.2,0.1,2.9,0.4c1.6,0.6,2.6,2.1,2.6,4.2c0,1.8-0.9,3.5-2.6,4.2v0c0,0,0.2,0.2,0.5,0.8
			l3.1,5.7h-3.1l-3-5.7H237V84h-2.8V68.7z M239.5,75.9c1.5,0,2.4-0.9,2.4-2.4c0-1-0.4-1.7-1.2-2.1c-0.4-0.2-0.8-0.3-1.7-0.3h-2v4.8
			H239.5z"/>
		<path class="st2" d="M267.8,68.7h2.9l5.4,15.3h-2.8l-1.3-3.9h-5.4l-1.3,3.9h-2.8L267.8,68.7z M271.3,77.8l-1.4-4.1
			c-0.3-0.9-0.6-2.4-0.6-2.4h0c0,0-0.3,1.5-0.6,2.4l-1.4,4.1H271.3z"/>
		<path class="st2" d="M293.1,68.7h5.2c4.7,0,7.8,2.8,7.8,7.6c0,4.8-3.1,7.7-7.8,7.7h-5.2V68.7z M298.1,81.6c3.1,0,5.1-1.8,5.1-5.3
			c0-3.4-2-5.2-5.1-5.2h-2.3v10.5H298.1z"/>
		<path class="st2" d="M321.4,68.7h2.8V84h-2.8V68.7z"/>
		<path class="st2" d="M366.6,68c4.6,0,7.9,3.4,7.9,7.8c0,4.5-3.3,8-7.9,8c-4.6,0-7.9-3.5-7.9-8C358.7,71.4,362,68,366.6,68z
			 M366.6,81.2c2.9,0,5-2.4,5-5.5c0-3-2.1-5.3-5-5.3s-5,2.3-5,5.3C361.6,78.9,363.7,81.2,366.6,81.2z"/>
		<path class="st3" d="M185.5,77.9c0-2,1.6-3.6,3.6-3.6c2,0,3.6,1.6,3.6,3.6c0,2-1.6,3.6-3.6,3.6C187.1,81.5,185.5,79.9,185.5,77.9z
			"/>
		<path class="st2" d="M329,55.6"/>
		<path class="st2" d="M365.5,60.2c-0.9-0.7-1.6-1.6-1.6-3c0-2.2,1.5-4.2,4.9-4.2c2.8,0,4.9,1.6,4.9,4.2c0,1.8-1.3,3.3-1.7,3.8
			c1.1,0.7,2,1.7,2,3.2c0,2.3-2,4.5-5.4,4.5c-3.3,0-5.4-2.1-5.4-4.7C363.2,62.1,364.9,60.7,365.5,60.2z M368.6,66.4
			c1.4,0,2.6-0.9,2.6-2.2c0-1.4-1.9-2-3.7-2.8c-0.4,0.4-1.4,1.2-1.4,2.6C366,65.4,367.3,66.4,368.6,66.4z M371.1,57.5
			c0-1.2-0.9-2-2.3-2c-1.4,0-2.1,0.8-2.1,1.8c0,1.4,1.7,2,3.4,2.8C370.3,59.7,371.1,58.7,371.1,57.5z"/>
		<path class="st2" d="M403.5,53.3h8.8v2.4h-6V60h5.1v2.4h-5.1v6.2h-2.8V53.3z"/>
		<path class="st2" d="M441.3,53.3h2.9l3,7.6c0.3,0.9,0.8,2.2,0.8,2.2h0c0,0,0.4-1.3,0.8-2.2l3-7.6h2.9l1.2,15.3h-2.8l-0.6-8.5
			c-0.1-1,0-2.4,0-2.4h0c0,0-0.5,1.5-0.8,2.4l-2.5,5.9h-2.4l-2.5-5.9c-0.3-0.9-0.8-2.4-0.8-2.4h0c0,0,0.1,1.4,0,2.4l-0.6,8.5H440
			L441.3,53.3z"/>
	</g>
	<g>
		<path class="st3" d="M0.4,75.8c0-2.2,0.7-4.1,2.2-5.6C4.1,68.8,5.9,68,8.2,68c2.3,0,4.2,0.7,5.6,2.1l-1.3,2.1
			c-0.6-0.5-1.2-0.9-2-1.2s-1.5-0.5-2.2-0.5c-1.6,0-2.8,0.5-3.7,1.5s-1.3,2.2-1.3,3.7c0,1.5,0.5,2.8,1.4,3.8
			c0.9,1.1,2.2,1.6,3.7,1.6c1.6,0,3.1-0.6,4.4-1.9l1.5,2c-1.6,1.6-3.6,2.5-6,2.5c-2.4,0-4.3-0.7-5.7-2.2C1.1,80,0.4,78.1,0.4,75.8z"
			/>
		<path class="st3" d="M36.3,75.8c0-2.2,0.7-4,2.2-5.5c1.5-1.5,3.4-2.2,5.6-2.2c2.3,0,4.2,0.7,5.6,2.2c1.5,1.5,2.2,3.3,2.2,5.5
			c0,2.3-0.7,4.1-2.2,5.7s-3.4,2.3-5.6,2.3c-2.3,0-4.2-0.8-5.6-2.3C37,79.9,36.3,78,36.3,75.8z M39.1,75.8c0,1.6,0.5,2.9,1.4,3.9
			s2.1,1.6,3.6,1.6s2.6-0.5,3.6-1.6s1.4-2.3,1.4-3.9c0-1.5-0.5-2.7-1.4-3.7s-2.1-1.5-3.6-1.5s-2.6,0.5-3.6,1.5S39.1,74.3,39.1,75.8z
			"/>
		<path class="st3" d="M78.4,83.5l-5.5-15.2h3l3.3,9.9l0.6,2.2h0c0.2-0.9,0.4-1.6,0.6-2.2l3.4-9.9h2.9l-5.5,15.2H78.4z"/>
		<path class="st3" d="M108.5,83.5V68.3h9.1v2.4h-6.3v4h5.1V77h-5.1v4.1h6.7v2.4H108.5z"/>
		<path class="st3" d="M141.3,83.5V68.3h5c1.3,0,2.2,0.1,2.9,0.4c0.8,0.3,1.4,0.8,1.9,1.6c0.5,0.7,0.7,1.6,0.7,2.6
			c0,0.9-0.2,1.8-0.7,2.5c-0.5,0.8-1.1,1.3-1.9,1.6v0c0.1,0.2,0.3,0.4,0.5,0.8l3.1,5.7h-3.1l-3-5.7H144v5.7H141.3z M144,75.4h2.5
			c0.7,0,1.3-0.2,1.8-0.7s0.6-1,0.6-1.8c0-1.1-0.4-1.7-1.2-2.1c-0.4-0.2-0.9-0.3-1.7-0.3h-2V75.4z"/>
		<path class="st3" d="M227.3,83.5V68.3h5c1.3,0,2.2,0.1,2.9,0.4c0.8,0.3,1.4,0.8,1.9,1.6s0.7,1.6,0.7,2.6c0,0.9-0.2,1.8-0.7,2.5
			s-1.1,1.3-1.9,1.6v0c0.1,0.2,0.3,0.4,0.5,0.8l3.1,5.7h-3.1l-3-5.7h-2.7v5.7H227.3z M230.1,75.4h2.5c0.7,0,1.3-0.2,1.8-0.7
			c0.4-0.4,0.6-1,0.6-1.8c0-1.1-0.4-1.7-1.2-2.1c-0.4-0.2-0.9-0.3-1.7-0.3h-2V75.4z"/>
		<path class="st3" d="M259.3,83.5l5.3-15.2h2.9l5.3,15.2H270l-1.3-3.9h-5.3l-1.3,3.9H259.3z M264.1,77.4h4l-1.3-4.1l-0.6-2.4h0
			c-0.2,1-0.4,1.8-0.6,2.4L264.1,77.4z"/>
		<path class="st3" d="M294.8,83.5V68.3h5.2c2.4,0,4.3,0.7,5.7,2c1.4,1.3,2.1,3.2,2.1,5.6c0,2.4-0.7,4.2-2.1,5.6
			c-1.4,1.4-3.3,2-5.7,2H294.8z M297.6,81.1h2.3c1.6,0,2.8-0.5,3.7-1.4s1.3-2.2,1.3-3.9c0-1.7-0.5-2.9-1.4-3.8
			c-0.9-0.9-2.1-1.4-3.7-1.4h-2.3V81.1z"/>
		<path class="st3" d="M331.1,83.5V68.3h2.8v15.2H331.1z"/>
		<path class="st3" d="M357.2,75.8c0-2.2,0.7-4,2.2-5.5c1.5-1.5,3.4-2.2,5.6-2.2s4.2,0.7,5.6,2.2c1.5,1.5,2.2,3.3,2.2,5.5
			c0,2.3-0.7,4.1-2.2,5.7s-3.4,2.3-5.6,2.3s-4.2-0.8-5.6-2.3S357.2,78,357.2,75.8z M360.1,75.8c0,1.6,0.5,2.9,1.4,3.9
			s2.1,1.6,3.6,1.6c1.4,0,2.6-0.5,3.6-1.6c0.9-1,1.4-2.3,1.4-3.9c0-1.5-0.5-2.7-1.4-3.7c-1-1-2.1-1.5-3.6-1.5
			c-1.4,0-2.6,0.5-3.6,1.5S360.1,74.3,360.1,75.8z"/>
	</g>
</g>
</svg>
