<svg viewBox="0 0 211 64" fill="none" xmlns="http://www.w3.org/2000/svg">
                    <path d="M211 9.415V54.29c0 5.2-4.438 9.414-9.917 9.414H9.917C4.438 63.704 0 59.491 0 54.29V9.415C0 4.213 4.438 0 9.917 0h191.166C206.562.02 211 4.213 211 9.415z" fill="#fff"></path>
                    <path d="M143.003 32.922a10.812 10.812 0 00-1.997-2.52c-1.635-1.512-3.949-2.54-6.477-2.762-2.505-.242-5.202.383-7.177 2.016a8.4 8.4 0 00-1.338 1.37 7.819 7.819 0 00-.956 1.614 7.838 7.838 0 00-.658 3.689c.085 1.25.382 2.58 1.083 3.649.701 1.068 1.72 1.895 2.867 2.419a6.641 6.641 0 003.695.584 6.167 6.167 0 003.291-1.471c.871-.746 1.381-1.814 1.551-2.923.148-1.109-.043-2.238-.574-3.145a3.903 3.903 0 00-.998-1.19 3.76 3.76 0 00-1.295-.685 3.99 3.99 0 00-2.825.222 3.77 3.77 0 00-1.083.786 2.807 2.807 0 00-.594 1.028 3.16 3.16 0 00.148 2.218c.149.322.361.605.595.806.17.161.255.202.382.282.128.08.276.141.425.182a2.38 2.38 0 001.635-.04c.234-.081 1.614-.847 1.019-2.299 1.508.706.638 4.375-3.036 3.447-1.168-.302-3.504-2.237-2.442-4.979a4.384 4.384 0 01.892-1.492c.403-.423.828-.806 1.401-1.088 1.126-.565 2.591-.706 3.907-.343a5.002 5.002 0 011.848.948c.51.403.977.947 1.317 1.532.679 1.189.955 2.58.785 3.971a6.2 6.2 0 01-.637 2.077l4.566 4.213c.085-.121.149-.242.234-.363a12.334 12.334 0 001.529-3.77c.361-1.532.467-3.326.021-5.201a11.088 11.088 0 00-1.104-2.782z" fill="#FF9E16"></path>
                    <path d="M76.49 51.287c-1.825 0-3.333-1.371-3.418-3.085V25.966c0-3.225-2.782-5.846-6.18-5.846h-2.846v.706c1.19.14 2.124.806 2.145 2.036v23.647c.17 3.669 3.356 6.592 7.242 6.592 1.592 0 3.079-.484 4.29-1.33l-.234-.605c-.297.08-.637.12-.998.12zm25.102-5.746l.424.484c-1.231.827-2.357 1.33-3.95 1.33-2.633 0-4.948-1.35-6.222-3.346-.764 2.177-3.843 3.79-7.517 3.79-.17 0-.34 0-.51-.02H83.668c-3.482-.06-6.264-2.762-6.264-6.068 0-2.318 1.359-4.334 3.376-5.362 1.168-.565 2.867-1.09 4.078-1.371 1.529-.363 4.395-.565 6.01-.645v-.484c.042-2.177-.043-5.504-2.952-5.988-1.657-.262-2.761.02-3.462.363-.637.323-.658.605-.616.706.128.262.255.14.701.645.34.383.595.968.489 1.834-.234 2.057-2.336 2.319-2.761 2.319-.425 0-2.93-.182-2.888-2.923.042-2.742 3.822-5.504 9.365-5.383 4.884.1 9.046 2.863 8.983 10.02 0 .886 0 1.612-.022 2.136V42.8c.085 1.733 1.062 2.882 2.91 2.882.318 0 .658-.04.977-.14zm-10.767-9.676c-3.355.363-6.774 1.995-6.626 5.644.107 2.843 2.23 3.75 4.248 3.347.424-.08 1.783-.625 2.123-2.117.106-.524.17-1.048.213-1.492 0-.846.02-3.467.042-5.382zm-57.018 4.677c-1.402-2.52-4.694-8.467-4.715-8.407 4.205-.423 7.709-3.75 7.709-7.862v-.121c0-4.314-3.695-7.822-8.24-7.822H11.934v.706c.87.1 1.614.483 1.953 1.169.128.343.191.746.191 1.23V41.469c0 3.226 2.761 5.846 6.159 5.846h2.697v-.725c-1.126-.202-1.996-.847-2.018-2.016V33.546 18.91c0-.342-.106-.604-.254-.766-.043-.06 0-.12.063-.12h1.593c3.865 0 6.987 2.963 6.987 6.632v.242c0 3.669-3.122 6.632-6.987 6.632h-.446c.807 1.512 3.1 5.826 6.434 11.33 1.041 1.694 2.23 2.681 3.228 3.427 3.695 2.742 8.813 1.35 10.894-.161l-.488-.585c-4.099 1.472-7.157-3.245-8.133-5zm14.079-2.117c.425 3.145 2.23 6.31 6.434 6.31h.361c2.188 0 4.566-.907 5.925-2.359l.956.726c-.064.08-.106.161-.127.161a11.415 11.415 0 01-9.196 4.597c-6.137 0-11.127-4.597-11.36-10.362a11.316 11.316 0 01-.043-.847c0-5.927 4.842-10.785 10.979-11.189h.127c.234-.02.467-.04.7-.04h.192c1.614-.04 3.228.181 4.46.544.02 0 .042.02.063.02.021 0 .043.02.064.02 2.57.807 4.417 3.085 4.417 5.787 0 1.33-.467 2.56-1.232 3.568-1.083 1.552-3.525 2.822-6.54 3.306h-.022c-.063 0-.106.02-.17.02-.212.04-.445.06-.658.08h-.085c-1.699.202-3.822 0-5.245-.342zm8.367-7.257v-.081-.06-.142c-.106-1.733-1.614-3.104-3.483-3.104-.807 0-1.762.342-2.357.786-.17.141-.722.564-1.274 1.593-.87 1.572-1.402 3.527-1.402 5.664 0 .242 0 .484.022.706v.02l.063.686c6.095 1.068 8.43-3.387 8.43-6.068zm68.507 14.918c-.297.08-.616.1-.934.12-2.315.142-3.589-2.842-4.311-3.93l-2.888-5.1-1.041-1.856 7.879-9.414h-3.632l-5.691 6.834-.17-.302-1.423-2.52c-1.253-2.4-3.843-4.032-6.859-4.032h-4.714v.705c1.677.222 3.695 2.278 5.351 5.222l1.869 3.326 1.89 3.326-7.433 8.91h3.632l5.266-6.33 1.572 2.783c1.784 3.024 4.629 4.032 6.859 4.032h.807c1.508 0 3.122-.404 4.268-1.15l-.297-.624zM172.795 37.074s0 .02 0 0c0 .02 0 0 0 0zm-21.958-11.21h-1.338v1.674h1.253V50.339c-.021 1.23-.955 1.895-2.145 2.036v.705h2.846c3.398 0 6.18-2.62 6.18-5.846V27.558h2.506v-1.673h-2.506v-.887c.085-1.714 1.571-3.085 3.419-3.085.339 0 .679.04.998.142l.233-.605a7.56 7.56 0 00-4.289-1.33c-3.589-.02-6.583 2.479-7.157 5.745zm46.103 19.213l.022-12.801c0-3.468-3.356-6.835-7.73-6.835-2.782 0-5.246 1.553-6.52 3.65-1.274-2.097-3.716-3.65-6.519-3.65-2.548 0-4.799 1.29-6.159 3.105-.297-.423-.679-.827-.764-.927-1.126-1.11-2.676-1.774-4.417-1.774h-2.336l-.021 1.673c1.189.14 1.635 1.17 1.635 2.419v-.343 17.74h6.88l-.021-14.837c0-2.701 1.72-4.092 3.101-4.092 1.38 0 3.1 1.37 3.1 4.092v14.838l6.838.02V32.497c0-2.701 1.72-4.092 3.1-4.092 1.381 0 3.101 1.37 3.101 4.092l.021 9.475c0 3.226 2.612 5.846 6.01 5.846h2.697v-.725c-1.147-.202-1.996-.827-2.018-2.016z" fill="#00A1AF"></path>
                    <path d="M143.065 32.92a10.806 10.806 0 00-1.996-2.52c-1.635-1.512-3.95-2.54-6.477-2.762-2.506-.242-5.203.383-7.178 2.016a8.484 8.484 0 00-1.338 1.371 7.816 7.816 0 00-.955 1.613 7.826 7.826 0 00-.659 3.689c.085 1.25.383 2.58 1.083 3.649.701 1.068 1.721 1.895 2.867 2.419a6.643 6.643 0 003.695.585 6.17 6.17 0 003.292-1.472c.871-.746 1.38-1.814 1.55-2.923.149-1.109-.042-2.238-.573-3.145a3.916 3.916 0 00-.998-1.19 3.765 3.765 0 00-1.296-.685 3.986 3.986 0 00-2.824.222 3.745 3.745 0 00-1.083.786 2.824 2.824 0 00-.595 1.028 3.165 3.165 0 00.149 2.218c.149.322.361.604.595.806.169.161.254.202.382.282.127.081.276.142.424.182a2.384 2.384 0 001.636-.04c.233-.081 1.614-.847 1.019-2.299 1.508.706.637 4.375-3.037 3.448-1.168-.303-3.504-2.238-2.442-4.98a4.383 4.383 0 01.892-1.492c.403-.423.828-.806 1.402-1.088 1.125-.565 2.59-.706 3.907-.343a5.018 5.018 0 011.848.947c.509.404.976.948 1.316 1.533.68 1.19.956 2.58.786 3.971a6.199 6.199 0 01-.637 2.076l4.566 4.214c.084-.121.148-.242.233-.363a12.31 12.31 0 001.529-3.77c.361-1.532.467-3.326.021-5.201-.233-.947-.615-1.875-1.104-2.782z" fill="#F59A2B"></path>
                    <path d="M76.555 51.287c-1.826 0-3.334-1.371-3.419-3.085V25.966c0-3.225-2.782-5.846-6.18-5.846h-2.845v.706c1.189.14 2.123.806 2.144 2.036v23.647c.17 3.669 3.356 6.592 7.242 6.592 1.593 0 3.08-.484 4.29-1.33l-.234-.605c-.319.08-.637.12-.998.12zm25.101-5.746l.425.484c-1.232.827-2.358 1.33-3.95 1.33-2.634 0-4.948-1.35-6.222-3.346-.765 2.177-3.844 3.79-7.518 3.79-.17 0-.34 0-.51-.02h-.148c-3.483-.06-6.265-2.762-6.265-6.068 0-2.318 1.36-4.334 3.377-5.362 1.168-.565 2.867-1.09 4.077-1.371 1.529-.363 4.396-.565 6.01-.645v-.484c.042-2.177-.043-5.504-2.952-5.988-1.657-.262-2.76.02-3.462.363-.637.323-.658.605-.615.706.127.262.254.14.7.645.34.383.595.968.489 1.834-.234 2.057-2.336 2.319-2.76 2.319-.426 0-2.931-.182-2.889-2.923.043-2.742 3.823-5.504 9.365-5.383 4.884.1 9.047 2.863 8.983 10.02 0 .886 0 1.612-.021 2.136V42.8c.085 1.733 1.061 2.882 2.909 2.882.318 0 .658-.04.977-.14zm-10.788-9.676c-3.355.363-6.774 1.995-6.626 5.644.106 2.843 2.23 3.75 4.248 3.347.424-.08 1.783-.625 2.123-2.117.106-.524.17-1.048.213-1.492.02-.846.02-3.467.042-5.382zM33.85 40.542c-1.402-2.52-4.694-8.467-4.715-8.407 4.205-.423 7.709-3.75 7.709-7.862v-.121c0-4.314-3.695-7.822-8.24-7.822H11.977v.706c.87.1 1.614.483 1.953 1.169.128.343.191.746.191 1.23V41.469c0 3.226 2.761 5.846 6.159 5.846h2.697v-.725c-1.126-.202-1.996-.847-2.018-2.016V33.546 18.91c0-.342-.106-.604-.255-.766-.042-.06 0-.12.064-.12h1.593c3.865 0 6.986 2.963 6.986 6.632v.242c0 3.669-3.121 6.632-6.986 6.632h-.446c.807 1.512 3.1 5.826 6.434 11.33 1.041 1.694 2.23 2.681 3.228 3.427 3.695 2.742 8.813 1.35 10.894-.161l-.467-.564c-4.098 1.451-7.178-3.266-8.154-5.02zm14.1-2.117c.425 3.145 2.23 6.31 6.435 6.31h.36c2.188 0 4.566-.907 5.925-2.359l.956.726c-.064.08-.106.161-.127.161a11.415 11.415 0 01-9.195 4.597c-6.138 0-11.128-4.597-11.362-10.362a11.316 11.316 0 01-.042-.847c0-5.927 4.842-10.785 10.979-11.189h.127c.234-.02.467-.04.701-.04h.191c1.614-.04 3.228.181 4.46.544.02 0 .042.02.063.02.022 0 .043.02.064.02 2.57.807 4.417 3.085 4.417 5.787 0 1.33-.467 2.56-1.232 3.568-1.083 1.552-3.525 2.822-6.54 3.306h-.021c-.064 0-.107.02-.17.02-.213.04-.446.06-.659.08h-.084c-1.7.202-3.823 0-5.246-.342zm8.367-7.257v-.081-.06-.142c-.106-1.733-1.614-3.104-3.483-3.104-.806 0-1.762.342-2.357.786-.17.141-.722.564-1.274 1.593-.87 1.572-1.402 3.527-1.402 5.664 0 .242 0 .484.022.706v.02l.063.686c6.095 1.068 8.431-3.387 8.431-6.068zm68.507 14.918c-.297.08-.616.1-.934.12-2.315.142-3.589-2.842-4.311-3.93l-2.888-5.1-1.041-1.856 7.879-9.414h-3.632l-5.691 6.834-.17-.302-1.422-2.52c-1.253-2.4-3.844-4.032-6.86-4.032h-4.714v.705c1.678.222 3.695 2.278 5.351 5.222l1.869 3.326 1.89 3.326-7.432 8.91h3.631l5.266-6.33 1.572 2.783c1.784 3.024 4.629 4.032 6.859 4.032h.807c1.508 0 3.122-.404 4.268-1.15l-.297-.624zM150.902 25.865h-1.338v1.673h1.253V50.339c-.022 1.23-.956 1.895-2.145 2.036v.705h2.845c3.398 0 6.18-2.62 6.18-5.846V27.558h2.506v-1.673h-2.506v-.887c.085-1.714 1.572-3.085 3.419-3.085.34 0 .68.04.998.142l.234-.605a7.566 7.566 0 00-4.29-1.33c-3.589-.02-6.583 2.479-7.156 5.745zm46.103 19.212l.021-12.801c0-3.468-3.355-6.835-7.73-6.835-2.782 0-5.245 1.553-6.519 3.65-1.274-2.097-3.717-3.65-6.52-3.65-2.548 0-4.799 1.29-6.158 3.105-.297-.423-.68-.827-.765-.927-1.125-1.11-2.675-1.774-4.417-1.774h-2.336l-.021 1.673c1.189.14 1.635 1.17 1.635 2.419v-.343 17.74h6.881l-.021-14.837c0-2.701 1.72-4.092 3.1-4.092 1.38 0 3.1 1.37 3.1 4.092v14.838l6.838.02V32.497c0-2.701 1.721-4.092 3.101-4.092s3.1 1.37 3.1 4.092l.022 9.475c0 3.226 2.612 5.846 6.009 5.846h2.697v-.725c-1.146-.202-2.017-.827-2.017-2.016z" fill="#009CAB"></path>
                </svg>