<svg width="224" height="47" viewBox="0 0 224 47" fill="none" xmlns="http://www.w3.org/2000/svg" data-v-13356ded=""><g clip-path="url(#clip0_3_464)" data-v-13356ded=""><path d="M1.71893 28.8767C2.43073 28.8767 3.00775 28.3008 3.00775 27.5905C3.00775 26.8802 2.43073 26.3043 1.71893 26.3043C1.00714 26.3043 0.430115 26.8802 0.430115 27.5905C0.430115 28.3008 1.00714 28.8767 1.71893 28.8767Z" fill="#CBA465" data-v-13356ded=""></path> <path d="M1.28882 25.4752C2.00061 25.4752 2.57764 24.8993 2.57764 24.189C2.57764 23.4787 2.00061 22.9028 1.28882 22.9028C0.577024 22.9028 0 23.4787 0 24.189C0 24.8993 0.577024 25.4752 1.28882 25.4752Z" fill="#CBA465" data-v-13356ded=""></path> <path d="M1.71893 22.4515C2.43073 22.4515 3.00775 21.8757 3.00775 21.1653C3.00775 20.455 2.43073 19.8792 1.71893 19.8792C1.00714 19.8792 0.430115 20.455 0.430115 21.1653C0.430115 21.8757 1.00714 22.4515 1.71893 22.4515Z" fill="#CBA465" data-v-13356ded=""></path> <path d="M3.00812 19.4278C3.71991 19.4278 4.29694 18.852 4.29694 18.1416C4.29694 17.4313 3.71991 16.8555 3.00812 16.8555C2.29632 16.8555 1.7193 17.4313 1.7193 18.1416C1.7193 18.852 2.29632 19.4278 3.00812 19.4278Z" fill="#CBA465" data-v-13356ded=""></path> <path d="M5.01166 16.7823C5.72345 16.7823 6.30048 16.2065 6.30048 15.4961C6.30048 14.7858 5.72345 14.21 5.01166 14.21C4.29986 14.21 3.72284 14.7858 3.72284 15.4961C3.72284 16.2065 4.29986 16.7823 5.01166 16.7823Z" fill="#CBA465" data-v-13356ded=""></path> <path d="M7.58929 14.8925C8.30109 14.8925 8.87811 14.3167 8.87811 13.6064C8.87811 12.896 8.30109 12.3202 7.58929 12.3202C6.8775 12.3202 6.30048 12.896 6.30048 13.6064C6.30048 14.3167 6.8775 14.8925 7.58929 14.8925Z" fill="#CBA465" data-v-13356ded=""></path> <path d="M10.7414 13.7585C11.4532 13.7585 12.0302 13.1827 12.0302 12.4723C12.0302 11.762 11.4532 11.1862 10.7414 11.1862C10.0296 11.1862 9.45258 11.762 9.45258 12.4723C9.45258 13.1827 10.0296 13.7585 10.7414 13.7585Z" fill="#CBA465" data-v-13356ded=""></path> <path d="M54.274 28.8767C53.5622 28.8767 52.9852 28.3008 52.9852 27.5905C52.9852 26.8802 53.5622 26.3043 54.274 26.3043C54.9858 26.3043 55.5628 26.8802 55.5628 27.5905C55.5628 28.3008 54.9858 28.8767 54.274 28.8767Z" fill="#CBA465" data-v-13356ded=""></path> <path d="M54.7275 25.4752C54.0157 25.4752 53.4387 24.8993 53.4387 24.189C53.4387 23.4787 54.0157 22.9028 54.7275 22.9028C55.4393 22.9028 56.0164 23.4787 56.0164 24.189C56.0164 24.8993 55.4393 25.4752 54.7275 25.4752Z" fill="#CBA465" data-v-13356ded=""></path> <path d="M54.274 22.4515C53.5622 22.4515 52.9852 21.8757 52.9852 21.1653C52.9852 20.455 53.5622 19.8792 54.274 19.8792C54.9858 19.8792 55.5628 20.455 55.5628 21.1653C55.5628 21.8757 54.9858 22.4515 54.274 22.4515Z" fill="#CBA465" data-v-13356ded=""></path> <path d="M52.989 19.4278C52.2772 19.4278 51.7001 18.852 51.7001 18.1416C51.7001 17.4313 52.2772 16.8555 52.989 16.8555C53.7007 16.8555 54.2778 17.4313 54.2778 18.1416C54.2778 18.852 53.7007 19.4278 52.989 19.4278Z" fill="#CBA465" data-v-13356ded=""></path> <path d="M50.9858 16.7823C50.274 16.7823 49.697 16.2065 49.697 15.4961C49.697 14.7858 50.274 14.21 50.9858 14.21C51.6976 14.21 52.2747 14.7858 52.2747 15.4961C52.2747 16.2065 51.6976 16.7823 50.9858 16.7823Z" fill="#CBA465" data-v-13356ded=""></path> <path d="M48.4158 14.8925C47.704 14.8925 47.127 14.3167 47.127 13.6064C47.127 12.896 47.704 12.3202 48.4158 12.3202C49.1276 12.3202 49.7046 12.896 49.7046 13.6064C49.7046 14.3167 49.1276 14.8925 48.4158 14.8925Z" fill="#CBA465" data-v-13356ded=""></path> <path d="M45.2787 13.7585C44.5669 13.7585 43.9899 13.1827 43.9899 12.4723C43.9899 11.762 44.5669 11.1862 45.2787 11.1862C45.9905 11.1862 46.5676 11.762 46.5676 12.4723C46.5676 13.1827 45.9905 13.7585 45.2787 13.7585Z" fill="#CBA465" data-v-13356ded=""></path> <path d="M27.9307 11.8689C28.6425 11.8689 29.2195 11.293 29.2195 10.5827C29.2195 9.87235 28.6425 9.29651 27.9307 9.29651C27.2189 9.29651 26.6419 9.87235 26.6419 10.5827C26.6419 11.293 27.2189 11.8689 27.9307 11.8689Z" fill="#CBA465" data-v-13356ded=""></path> <path d="M27.9307 15.2704C28.6425 15.2704 29.2195 14.6945 29.2195 13.9842C29.2195 13.2738 28.6425 12.698 27.9307 12.698C27.2189 12.698 26.6419 13.2738 26.6419 13.9842C26.6419 14.6945 27.2189 15.2704 27.9307 15.2704Z" fill="#CBA465" data-v-13356ded=""></path> <path d="M27.9307 18.6721C28.6425 18.6721 29.2195 18.0962 29.2195 17.3859C29.2195 16.6756 28.6425 16.0997 27.9307 16.0997C27.2189 16.0997 26.6419 16.6756 26.6419 17.3859C26.6419 18.0962 27.2189 18.6721 27.9307 18.6721Z" fill="#CBA465" data-v-13356ded=""></path> <path d="M27.9307 22.0736C28.6425 22.0736 29.2195 21.4977 29.2195 20.7874C29.2195 20.0771 28.6425 19.5012 27.9307 19.5012C27.2189 19.5012 26.6419 20.0771 26.6419 20.7874C26.6419 21.4977 27.2189 22.0736 27.9307 22.0736Z" fill="#CBA465" data-v-13356ded=""></path> <path d="M27.9307 25.4752C28.6425 25.4752 29.2195 24.8993 29.2195 24.189C29.2195 23.4787 28.6425 22.9028 27.9307 22.9028C27.2189 22.9028 26.6419 23.4787 26.6419 24.189C26.6419 24.8993 27.2189 25.4752 27.9307 25.4752Z" fill="#CBA465" data-v-13356ded=""></path> <path d="M13.1792 26.609C13.891 26.609 14.468 26.0331 14.468 25.3228C14.468 24.6125 13.891 24.0366 13.1792 24.0366C12.4674 24.0366 11.8904 24.6125 11.8904 25.3228C11.8904 26.0331 12.4674 26.609 13.1792 26.609Z" fill="#CBA465" data-v-13356ded=""></path> <path d="M12.1701 23.2074C12.8819 23.2074 13.4589 22.6315 13.4589 21.9212C13.4589 21.2109 12.8819 20.635 12.1701 20.635C11.4583 20.635 10.8813 21.2109 10.8813 21.9212C10.8813 22.6315 11.4583 23.2074 12.1701 23.2074Z" fill="#CBA465" data-v-13356ded=""></path> <path d="M12.3213 20.1838C13.0331 20.1838 13.6101 19.608 13.6101 18.8976C13.6101 18.1873 13.0331 17.6115 12.3213 17.6115C11.6095 17.6115 11.0325 18.1873 11.0325 18.8976C11.0325 19.608 11.6095 20.1838 12.3213 20.1838Z" fill="#CBA465" data-v-13356ded=""></path> <path d="M13.1792 17.1601C13.891 17.1601 14.468 16.5843 14.468 15.8739C14.468 15.1636 13.891 14.5878 13.1792 14.5878C12.4674 14.5878 11.8904 15.1636 11.8904 15.8739C11.8904 16.5843 12.4674 17.1601 13.1792 17.1601Z" fill="#CBA465" data-v-13356ded=""></path> <path d="M14.8989 14.1366C15.6107 14.1366 16.1877 13.5607 16.1877 12.8504C16.1877 12.1401 15.6107 11.5642 14.8989 11.5642C14.1871 11.5642 13.6101 12.1401 13.6101 12.8504C13.6101 13.5607 14.1871 14.1366 14.8989 14.1366Z" fill="#CBA465" data-v-13356ded=""></path> <path d="M17.3291 11.8689C18.0409 11.8689 18.6179 11.293 18.6179 10.5827C18.6179 9.87235 18.0409 9.29651 17.3291 9.29651C16.6173 9.29651 16.0403 9.87235 16.0403 10.5827C16.0403 11.293 16.6173 11.8689 17.3291 11.8689Z" fill="#CBA465" data-v-13356ded=""></path> <path d="M20.0504 10.357C20.7622 10.357 21.3392 9.78118 21.3392 9.07085C21.3392 8.36051 20.7622 7.78467 20.0504 7.78467C19.3386 7.78467 18.7616 8.36051 18.7616 9.07085C18.7616 9.78118 19.3386 10.357 20.0504 10.357Z" fill="#CBA465" data-v-13356ded=""></path> <path d="M23.1987 9.60104C23.9105 9.60104 24.4876 9.0252 24.4876 8.31487C24.4876 7.60453 23.9105 7.02869 23.1987 7.02869C22.4869 7.02869 21.9099 7.60453 21.9099 8.31487C21.9099 9.0252 22.4869 9.60104 23.1987 9.60104Z" fill="#CBA465" data-v-13356ded=""></path> <path d="M42.822 26.609C42.1102 26.609 41.5332 26.0331 41.5332 25.3228C41.5332 24.6125 42.1102 24.0366 42.822 24.0366C43.5338 24.0366 44.1108 24.6125 44.1108 25.3228C44.1108 26.0331 43.5338 26.609 42.822 26.609Z" fill="#CBA465" data-v-13356ded=""></path> <path d="M43.8425 23.2074C43.1307 23.2074 42.5537 22.6315 42.5537 21.9212C42.5537 21.2109 43.1307 20.635 43.8425 20.635C44.5543 20.635 45.1313 21.2109 45.1313 21.9212C45.1313 22.6315 44.5543 23.2074 43.8425 23.2074Z" fill="#CBA465" data-v-13356ded=""></path> <path d="M43.6913 20.1838C42.9796 20.1838 42.4025 19.608 42.4025 18.8976C42.4025 18.1873 42.9796 17.6115 43.6913 17.6115C44.4031 17.6115 44.9802 18.1873 44.9802 18.8976C44.9802 19.608 44.4031 20.1838 43.6913 20.1838Z" fill="#CBA465" data-v-13356ded=""></path> <path d="M42.822 17.1601C42.1102 17.1601 41.5332 16.5843 41.5332 15.8739C41.5332 15.1636 42.1102 14.5878 42.822 14.5878C43.5338 14.5878 44.1108 15.1636 44.1108 15.8739C44.1108 16.5843 43.5338 17.1601 42.822 17.1601Z" fill="#CBA465" data-v-13356ded=""></path> <path d="M41.0835 14.1366C40.3717 14.1366 39.7947 13.5607 39.7947 12.8504C39.7947 12.1401 40.3717 11.5642 41.0835 11.5642C41.7953 11.5642 42.3723 12.1401 42.3723 12.8504C42.3723 13.5607 41.7953 14.1366 41.0835 14.1366Z" fill="#CBA465" data-v-13356ded=""></path> <path d="M38.6645 11.8689C37.9528 11.8689 37.3757 11.293 37.3757 10.5827C37.3757 9.87235 37.9528 9.29651 38.6645 9.29651C39.3763 9.29651 39.9534 9.87235 39.9534 10.5827C39.9534 11.293 39.3763 11.8689 38.6645 11.8689Z" fill="#CBA465" data-v-13356ded=""></path> <path d="M35.9509 10.357C35.2391 10.357 34.662 9.78118 34.662 9.07085C34.662 8.36051 35.2391 7.78467 35.9509 7.78467C36.6627 7.78467 37.2397 8.36051 37.2397 9.07085C37.2397 9.78118 36.6627 10.357 35.9509 10.357Z" fill="#CBA465" data-v-13356ded=""></path> <path d="M32.7988 9.60104C32.087 9.60104 31.5099 9.0252 31.5099 8.31487C31.5099 7.60453 32.087 7.02869 32.7988 7.02869C33.5106 7.02869 34.0876 7.60453 34.0876 8.31487C34.0876 9.0252 33.5106 9.60104 32.7988 9.60104Z" fill="#CBA465" data-v-13356ded=""></path> <path fill-rule="evenodd" clip-rule="evenodd" d="M12.0416 31.748C12.0016 31.6478 11.9716 31.5379 11.9716 31.4279C11.9516 31.0677 12.1316 30.7578 12.4115 30.5778C12.5515 30.4777 12.7215 30.4179 12.9013 30.4077H13.0313C13.2814 30.3677 13.5514 30.3889 13.8213 30.4577C13.1912 30.1576 12.8114 29.8575 12.7014 29.5275C12.6614 29.4176 12.6314 29.2973 12.6314 29.1673C12.6314 28.6575 13.0513 28.2372 13.5615 28.2372C13.6715 28.2372 13.7815 28.2561 13.8715 28.2973C13.8115 28.1673 13.7815 28.0274 13.7815 27.8871C13.7815 27.3671 14.1916 26.957 14.7117 26.957C15.2215 26.957 15.6418 27.3671 15.6418 27.8871C15.6418 27.937 15.6418 27.9874 15.6318 28.0271C15.7418 27.9772 15.8718 27.9572 16.0018 27.9572C16.5117 27.9572 16.932 28.3672 16.932 28.8873C16.932 29.0173 16.902 29.137 16.852 29.247C16.8219 29.3472 16.742 29.467 16.642 29.557C16.532 29.6571 16.402 29.7169 16.292 29.8072C16.182 29.9074 16.072 29.9773 16.052 30.0571C16.7319 29.757 16.8018 29.6572 17.0418 29.6069C17.1618 29.5468 17.2919 29.5267 17.4217 29.5267C17.9315 29.5267 18.3518 29.9368 18.3518 30.4569C18.3518 30.557 18.3318 30.667 18.3018 30.7668C18.4218 30.6969 18.5618 30.6667 18.7119 30.6667C19.2218 30.6667 19.642 31.0865 19.642 31.5968C19.642 32.1066 19.2221 32.5269 18.7119 32.5269C18.6619 32.5269 18.6119 32.5269 18.5719 32.5156C18.5719 32.5156 18.5619 32.5156 18.5619 32.5269C18.6119 32.6369 18.6419 32.7571 18.6419 32.8871C18.6419 33.3769 18.2621 33.7772 17.7821 33.8071C17.352 33.8672 16.7019 33.657 16.5322 33.5671C16.2522 33.417 15.9021 33.0069 15.5023 32.327C15.4123 32.8471 15.2223 33.3369 14.9421 33.787C14.6921 34.2069 14.252 34.4969 13.6223 34.667C13.5623 34.6859 13.5023 34.6972 13.4423 34.707C13.4323 34.707 13.4223 34.7069 13.4123 34.7183V34.707C13.3923 34.7183 13.3723 34.7183 13.3623 34.7183C12.8423 34.7372 12.4121 34.3483 12.3823 33.8385C12.3723 33.7285 12.3923 33.6185 12.4123 33.5285C12.2923 33.5886 12.1623 33.6386 12.0124 33.6386C11.5026 33.6688 11.0623 33.2787 11.0324 32.7586C11.0124 32.4086 11.1924 32.0885 11.4825 31.9188C11.6225 31.8187 11.7826 31.759 11.9724 31.7488C11.9924 31.7375 12.0224 31.7375 12.0424 31.7488L12.0416 31.748Z" fill="#CBA465" data-v-13356ded=""></path> <path fill-rule="evenodd" clip-rule="evenodd" d="M53.367 30.6142C53.4369 30.5043 53.4769 30.3742 53.4969 30.2343C53.5469 29.7244 53.1769 29.2645 52.6669 29.2142C52.1571 29.1643 51.6971 29.5344 51.6469 30.0442C51.637 30.0941 51.637 30.1444 51.637 30.1943C51.537 30.1342 51.407 30.0941 51.277 30.0744C50.7672 30.0246 50.3072 30.3946 50.2569 30.9044C50.2471 31.0345 50.2569 31.1543 50.2969 31.2745C50.3067 31.3644 50.3869 31.4945 50.4769 31.6045C50.5769 31.7144 50.6969 31.7843 50.7969 31.8943C50.897 32.0043 50.997 32.0845 51.0069 32.1642C50.3671 31.7942 50.307 31.6941 50.067 31.6041C49.957 31.544 49.8369 31.5039 49.697 31.4843C49.1871 31.4344 48.737 31.8044 48.6769 32.3143C48.667 32.4243 48.6769 32.5244 48.6969 32.6242C48.5869 32.5543 48.4469 32.5043 48.297 32.4941C47.7872 32.434 47.3272 32.804 47.2769 33.3143C47.2269 33.8343 47.5969 34.2841 48.1069 34.3442H48.2469V34.3556C48.1969 34.4558 48.1569 34.5755 48.1369 34.7055C48.0869 35.1954 48.4269 35.6357 48.9068 35.7155C49.3267 35.8156 49.987 35.6754 50.1567 35.6054C50.4467 35.4955 50.8068 35.1454 51.2467 34.5653C51.5867 34.0755 51.8768 33.6655 52.1066 33.3355C52.6266 32.5857 53.0465 31.6853 53.3466 30.6153L53.367 30.6142Z" fill="#CBA465" data-v-13356ded=""></path> <path fill-rule="evenodd" clip-rule="evenodd" d="M2.52395 30.9921C2.45796 30.8821 2.41396 30.7521 2.39896 30.622C2.34597 30.102 2.71697 29.6522 3.22781 29.5922C3.7388 29.5423 4.19688 29.9123 4.25093 30.4222C4.25592 30.472 4.25694 30.5223 4.25493 30.5722C4.36193 30.5121 4.48394 30.472 4.61493 30.4524C5.12593 30.4025 5.58401 30.7725 5.63805 31.2824C5.65105 31.4124 5.63605 31.5424 5.59807 31.6524C5.58408 31.7522 5.51306 31.8822 5.41907 31.9922C5.32307 32.1022 5.20106 32.1623 5.10106 32.2722C4.99905 32.3822 4.89507 32.4624 4.88608 32.5421C5.53124 32.1721 5.58718 32.0719 5.82718 31.9922C5.93618 31.9223 6.06117 31.8822 6.19417 31.8723C6.70516 31.8123 7.16211 32.1823 7.21616 32.6925C7.22715 32.8025 7.21916 32.9125 7.19616 33.0126C7.31318 32.9325 7.44916 32.8827 7.59604 32.8728C8.10589 32.8127 8.56322 33.193 8.61689 33.7028C8.6709 34.2127 8.30088 34.6726 7.79106 34.7229C7.74208 34.7229 7.69408 34.7343 7.64608 34.7229C7.64608 34.7343 7.64508 34.7342 7.64508 34.7342C7.70309 34.8344 7.74108 34.9541 7.75506 35.0842C7.80707 35.574 7.46608 36.0241 6.98517 36.1042C6.56829 36.1942 5.90498 36.0544 5.73415 35.9841C5.45114 35.8741 5.08823 35.5241 4.64602 34.9542C4.30401 34.4643 4.01711 34.0542 3.78618 33.7243C3.26536 32.9744 2.85301 32.0643 2.54914 30.9944L2.52395 30.9921Z" fill="#CBA465" data-v-13356ded=""></path> <path fill-rule="evenodd" clip-rule="evenodd" d="M24.7673 30.6142C24.7317 30.5084 24.7258 30.4063 24.7326 30.2861C24.7615 29.9368 24.9843 29.6451 25.2851 29.5155C25.4377 29.4357 25.6144 29.4002 25.8041 29.4169C25.855 29.4139 25.9045 29.4206 25.9342 29.4243C26.186 29.4281 26.4407 29.4856 26.7094 29.5839C26.116 29.2074 25.7928 28.8491 25.7297 28.507C25.6941 28.4008 25.6924 28.2697 25.7091 28.1506C25.7801 27.6457 26.2545 27.2882 26.7595 27.3593C26.8684 27.3744 26.9646 27.4084 27.0595 27.4519C27.0168 27.3245 26.9966 27.1805 27.0175 27.0319C27.0885 26.527 27.5629 26.1694 28.0679 26.2404C28.5826 26.313 28.9402 26.7874 28.8691 27.2924C28.8621 27.3419 28.8453 27.3899 28.8285 27.4383C28.9542 27.4043 29.0773 27.3925 29.206 27.4117C29.7208 27.4843 30.0685 27.9572 29.9974 28.4622C29.9793 28.591 29.9414 28.7169 29.8667 28.8174C29.8344 28.904 29.7385 29.0113 29.6156 29.0952C29.5027 29.1802 29.3656 29.2218 29.2441 29.2955C29.1114 29.3779 28.9927 29.432 28.9618 29.5083C29.6768 29.3057 29.76 29.2165 30.0159 29.1919C30.1317 29.1579 30.2647 29.1462 30.4033 29.1655C30.9082 29.2366 31.2658 29.7109 31.1947 30.2158C31.1794 30.3247 31.1443 30.4309 31.0921 30.5144C31.2292 30.4732 31.372 30.4629 31.5207 30.4841C32.0257 30.5552 32.3847 31.0198 32.3122 31.5345C32.2412 32.0395 31.7668 32.3969 31.2618 32.3259C31.2123 32.3183 31.1642 32.3032 31.1147 32.2957C31.1489 32.4117 31.152 32.533 31.1339 32.6619C31.0657 33.1472 30.6324 33.5002 30.1528 33.4632C29.7298 33.4556 29.1055 33.1544 28.9581 33.0531C28.6917 32.8641 28.4134 32.4011 28.1009 31.6803C27.9507 32.1743 27.6942 32.6332 27.3529 33.0497C27.0384 33.4193 26.5622 33.6454 25.9148 33.7263C25.8526 33.7376 25.7904 33.7489 25.7296 33.7489L25.7098 33.7461L25.6999 33.7447L25.6504 33.7371C25.1413 33.6959 24.7595 33.2484 24.8124 32.7306C24.8164 32.6301 24.8417 32.5228 24.8853 32.428C24.7567 32.4805 24.6125 32.5005 24.4628 32.4896C23.9537 32.4484 23.5734 31.9911 23.6248 31.4831C23.6537 31.1339 23.8765 30.842 24.1774 30.7124C24.3299 30.6326 24.508 30.5873 24.6876 30.6025L24.7673 30.6142Z" fill="#CBA465" data-v-13356ded=""></path> <path fill-rule="evenodd" clip-rule="evenodd" d="M37.663 30.2362C37.6521 30.1251 37.6729 30.015 37.703 29.9088C37.8097 29.5751 38.0923 29.3408 38.4147 29.2822C38.5812 29.2391 38.765 29.2345 38.9461 29.2935L39.0674 29.3401C39.3116 29.4017 39.5508 29.5041 39.787 29.6696C39.2934 29.1696 39.0591 28.7474 39.0746 28.4001C39.0674 28.2795 39.0916 28.1604 39.1347 28.0481C39.3211 27.5629 39.8509 27.3271 40.3362 27.5134C40.4389 27.5527 40.5287 27.598 40.6077 27.671C40.5948 27.5376 40.6075 27.3924 40.6612 27.2522C40.844 26.7759 41.3865 26.5345 41.8628 26.7174C42.348 26.9038 42.5899 27.4465 42.407 27.9223C42.3892 27.9692 42.3618 28.0122 42.3346 28.0549C42.4645 28.0512 42.5873 28.0664 42.7087 28.1128C43.194 28.2992 43.4264 28.8381 43.2435 29.3144C43.1969 29.4357 43.1317 29.5498 43.0362 29.6311C42.9853 29.7078 42.8676 29.7914 42.7291 29.8454C42.5999 29.9029 42.4606 29.9028 42.322 29.9568C42.1741 30.0071 42.0464 30.0331 41.999 30.1004C42.7413 30.0626 42.8426 29.9957 43.0973 30.0294C43.2179 30.0218 43.3501 30.0408 43.4806 30.0911C43.9568 30.274 44.1983 30.8163 44.0154 31.2925C43.976 31.3953 43.9215 31.4815 43.8483 31.5605C43.9912 31.553 44.1362 31.564 44.2761 31.6176C44.7524 31.8006 44.9844 32.3395 44.8019 32.8157C44.6155 33.301 44.0856 33.5368 43.6098 33.3542C43.5631 33.3353 43.5164 33.3202 43.4734 33.2911L43.4698 33.2987C43.4769 33.4193 43.4528 33.5383 43.4061 33.66C43.2305 34.1173 42.7322 34.3548 42.27 34.2202C41.8599 34.1163 41.3191 33.6838 41.2019 33.5425C40.9849 33.2987 40.8145 32.7937 40.6754 32.0121C40.4144 32.469 40.0612 32.8584 39.6353 33.1876C39.2456 33.4771 38.7308 33.5901 38.0819 33.5232C38.0187 33.5204 37.9591 33.5081 37.8995 33.4968C37.8867 33.5043 37.8772 33.499 37.8772 33.499L37.8678 33.4954L37.8211 33.4765C37.3343 33.3215 37.0667 32.7905 37.2217 32.3037C37.2611 32.2009 37.3063 32.1113 37.3701 32.0285C37.233 32.0512 37.088 32.0398 36.9441 31.9945C36.4607 31.8304 36.1898 31.3085 36.3538 30.8255C36.4641 30.4823 36.7469 30.248 37.0692 30.1898C37.2358 30.1467 37.416 30.1516 37.5878 30.2049L37.663 30.2362Z" fill="#CBA465" data-v-13356ded=""></path> <path fill-rule="evenodd" clip-rule="evenodd" d="M51.515 27.9684C52.715 26.6785 52.7951 23.9697 52.3948 21.8569C52.1948 20.7869 51.7349 19.8671 51.515 19.367C50.7851 17.6968 48.7948 16.0871 45.5546 14.5367C44.9046 14.3867 44.5746 14.3867 44.5648 14.5367C44.555 14.6267 46.3846 17.0369 46.235 20.9469C46.1549 22.927 46.235 24.9153 43.7949 27.0659C43.2049 27.9658 44.9851 28.6158 45.555 27.9658C46.9251 26.3859 47.4848 24.6458 47.5249 22.8142C47.5649 20.7143 47.085 18.2334 46.0849 15.3837C48.7151 17.2538 50.284 19.1632 50.7866 21.1021C51.1266 22.4121 51.3267 25.1539 49.7167 26.7526C49.4167 27.0527 49.5267 27.5127 50.0367 28.1427C50.4566 28.6325 50.9468 28.5728 51.5167 27.9628L51.515 27.9684Z" fill="#CBA465" data-v-13356ded=""></path> <path fill-rule="evenodd" clip-rule="evenodd" d="M15.8211 26.0787C14.471 24.3488 14.0213 21.4677 14.5311 18.9279C14.7812 17.6379 15.1612 16.608 15.4911 16.0577C16.6711 14.0678 18.3613 12.5178 20.5519 11.4164C22.032 10.9164 23.0521 10.6064 23.6319 10.5063C25.3618 10.1964 26.0818 10.3865 26.092 10.5063C26.092 10.5562 26.1819 11.2864 26.092 12.7264C25.952 14.6762 25.5719 17.6965 25.1418 19.8962C24.8018 21.606 24.5518 23.4561 24.4516 25.146C24.4216 25.7261 25.5617 26.0761 25.1418 27.0561C24.7117 28.0362 22.9119 28.0562 22.7917 26.626C22.5917 24.206 23.5117 21.6257 23.8518 19.4752C24.2717 16.755 24.7018 14.146 25.1418 11.6553C20.9012 11.4954 18.0401 13.4355 16.5509 17.4569C16.2009 18.3969 15.8211 19.9967 16.0509 21.6181C16.1809 22.5879 16.481 23.6584 17.2607 24.3481C17.8208 24.8482 17.9709 25.6082 17.7207 26.6279C17.1205 27.1177 16.4908 26.9279 15.8207 26.0779L15.8211 26.0787Z" fill="#CBA465" data-v-13356ded=""></path> <path fill-rule="evenodd" clip-rule="evenodd" d="M40.252 26.0787C41.602 24.3488 42.0518 21.4677 41.5419 18.9279C41.2919 17.6379 40.902 16.608 40.5819 16.0577C39.4019 14.0678 37.7117 12.5178 35.5211 11.4164C34.0411 10.9164 33.021 10.6064 32.4412 10.5063C30.7113 10.1964 29.9913 10.3865 29.9811 10.5063C29.9811 10.5562 29.8811 11.2864 29.9811 12.7264C30.1211 14.6762 30.5012 17.6965 30.9313 19.8962C31.2713 21.606 31.5213 23.4561 31.6112 25.146C31.6512 25.7261 30.3213 26.106 30.7514 27.086C31.1713 28.066 33.1612 28.0558 33.2814 26.626C33.4814 24.206 32.5614 21.6257 32.2212 19.4752C31.8013 16.755 31.3712 14.146 30.9313 11.6553C35.1719 11.4954 38.033 13.4355 39.5221 17.4569C39.8721 18.3969 40.2421 19.9967 40.0222 21.6181C39.8921 22.5879 39.5921 23.6584 38.8123 24.3481C38.2522 24.8482 38.1022 25.6082 38.3524 26.6279C38.9526 27.1177 39.5822 26.9279 40.2523 26.0779L40.252 26.0787Z" fill="#CBA465" data-v-13356ded=""></path> <path fill-rule="evenodd" clip-rule="evenodd" d="M27.3789 3.77957C26.3788 4.05057 25.6388 4.96674 25.6388 6.05562C25.6388 7.35767 26.6887 8.41252 27.9987 8.41252C29.3087 8.41252 30.3587 7.35767 30.3587 6.05562C30.3587 4.9845 29.6485 4.08038 28.6688 3.79238V3.19641L30.0389 1.63548C30.4188 1.32254 30.539 1.06249 30.4089 0.854616C30.2789 0.646742 30.1189 0.599077 29.9289 0.711707L28.6688 0.854616C28.6688 0.165986 28.4588 -0.182581 28.049 -0.191652C27.6389 -0.199211 27.439 0.148222 27.439 0.854616L26.239 0.711707C25.939 0.692809 25.7389 0.738141 25.6388 0.848503C25.5388 0.957353 25.5488 1.1244 25.6588 1.34966L27.3788 3.19675L27.3789 3.77957Z" fill="#CBA465" data-v-13356ded=""></path> <path fill-rule="evenodd" clip-rule="evenodd" d="M6.24756 36.6613C8.27943 37.6115 10.08 37.8516 11.6485 37.3716C13.2185 36.8916 14.6786 35.7415 16.029 33.9216C18.2491 35.6515 20.2091 36.4917 21.9099 36.4418C23.5997 36.3817 25.7008 35.4119 28.1991 33.5217C30.3991 35.4017 32.4208 36.3816 34.2576 36.4716C36.1077 36.5517 38.109 35.7517 40.2784 34.0717C41.7986 35.9316 43.1486 37.0318 44.3301 37.3716C45.5002 37.7118 47.3802 37.5616 49.9616 36.9014L47.1817 41.2214C43.2699 39.5712 36.9128 38.7413 28.1027 38.7114C19.3039 38.6812 12.8939 39.5214 8.85354 41.2214L6.24756 36.6613ZM28.1386 35.0113L25.2087 36.8711H31.0783L28.1386 35.0113ZM40.1386 35.7714L36.9286 37.0911L42.7075 38.1112L40.1386 35.7714ZM16.0668 35.7714L13.3368 37.9215L19.1762 37.3114L16.0668 35.7714ZM8.30362 38.5814L8.98356 39.3816L10.2365 38.8615L8.30362 38.5814ZM47.9131 38.5814L45.973 38.8615L47.2331 39.3816L47.9131 38.5814Z" fill="#CBA465" data-v-13356ded=""></path> <path fill-rule="evenodd" clip-rule="evenodd" d="M28.2104 46.8661C18.0095 46.8661 9.73987 46.0659 9.73987 45.0761C9.73887 44.0961 18.0095 43.2959 28.2104 43.2959C38.4189 43.2959 46.6923 44.0961 46.6923 45.0761C46.6923 46.0659 38.4227 46.8661 28.2104 46.8661ZM28.0004 45.7262C36.27 45.7262 42.9711 45.4662 42.9711 45.1464C42.9711 44.8365 36.27 44.5764 28.0004 44.5764C19.7308 44.5764 13.0297 44.8365 13.0297 45.1464C13.0297 45.4666 19.7308 45.7262 28.0004 45.7262Z" fill="#CBA465" data-v-13356ded=""></path> <path fill-rule="evenodd" clip-rule="evenodd" d="M9.09731 41.9527C12.6482 40.2527 18.9997 39.4325 28.1386 39.4926C37.2888 39.5425 43.6384 40.3725 47.1874 41.9527V44.2827C42.3572 42.6829 35.7883 41.8827 27.4961 41.8827C19.2075 41.8827 13.0658 42.6829 9.09731 44.2827L9.09631 41.9527H9.09731ZM26.3471 40.6525L27.9572 41.4727L29.6073 40.6525L27.9572 39.8925L26.3471 40.6525ZM11.6674 42.7826C12.0274 42.7826 12.3175 42.4927 12.3175 42.1325C12.3175 41.7825 12.0275 41.4927 11.6674 41.4927C11.3174 41.4927 11.0275 41.7825 11.0275 42.1325C11.0275 42.4927 11.3175 42.7826 11.6674 42.7826ZM17.6882 41.7826C18.0382 41.7826 18.3281 41.4927 18.3281 41.1325C18.3281 40.7825 18.038 40.4926 17.6882 40.4926C17.3282 40.4926 17.0381 40.7825 17.0381 41.1325C17.0381 41.4927 17.3281 41.7826 17.6882 41.7826ZM23.4179 41.3525C23.7679 41.3525 24.0578 41.0625 24.0578 40.7126C24.0578 40.3527 23.7678 40.0625 23.4179 40.0625C23.0579 40.0625 22.7679 40.3524 22.7679 40.7126C22.7679 41.0625 23.0579 41.3525 23.4179 41.3525ZM32.7269 41.4923C33.0769 41.4923 33.3668 41.2024 33.3668 40.8525C33.3668 40.4923 33.0768 40.2125 32.7269 40.2125C32.3669 40.2125 32.0768 40.4927 32.0768 40.8525C32.0768 41.2024 32.3668 41.4923 32.7269 41.4923ZM38.5965 41.9224C38.9465 41.9224 39.2364 41.6326 39.2364 41.2826C39.2364 40.9224 38.9464 40.6325 38.5965 40.6325C38.2365 40.6325 37.9464 40.9224 37.9464 41.2826C37.9464 41.6326 38.2364 41.9224 38.5965 41.9224ZM44.3263 42.9225C44.6763 42.9225 44.9662 42.6326 44.9662 42.2826C44.9662 41.9228 44.6762 41.6325 44.3263 41.6325C43.9663 41.6325 43.6762 41.9224 43.6762 42.2826C43.6762 42.6326 43.9662 42.9225 44.3263 42.9225ZM14.6759 42.0626C14.9559 42.0626 15.1759 41.8427 15.1759 41.5626C15.1759 41.2928 14.9559 41.0626 14.6759 41.0626C14.3959 41.0626 14.1759 41.2928 14.1759 41.5626C14.1759 41.8427 14.3959 42.0626 14.6759 42.0626ZM20.6967 41.4927C20.9667 41.4927 21.1967 41.2728 21.1967 40.9927C21.1967 40.7229 20.9667 40.4926 20.6967 40.4926C20.4167 40.4926 20.1868 40.7229 20.1868 40.9927C20.1868 41.2728 20.4168 41.4927 20.6967 41.4927ZM35.4482 41.4927C35.7182 41.4927 35.9482 41.2728 35.9482 40.9927C35.9482 40.7229 35.7182 40.4926 35.4482 40.4926C35.1682 40.4926 34.9481 40.7229 34.9481 40.9927C34.9481 41.2728 35.1682 41.4927 35.4482 41.4927ZM41.4576 42.2127C41.7376 42.2127 41.9577 41.9825 41.9577 41.7127C41.9577 41.4326 41.7377 41.2127 41.4576 41.2127C41.1876 41.2127 40.9576 41.4326 40.9576 41.7127C40.9576 41.9825 41.1876 42.2127 41.4576 42.2127Z" fill="#CBA465" data-v-13356ded=""></path> <path fill-rule="evenodd" clip-rule="evenodd" d="M4.53165 27.9684C3.33467 26.6785 3.25454 23.9697 3.65064 21.8569C3.85163 20.7869 4.31281 19.8671 4.53165 19.367C5.2645 17.6968 7.25177 16.0871 10.4882 14.5367C11.1383 14.3867 11.4682 14.3867 11.4882 14.5367C11.4882 14.6267 9.66424 17.0369 9.81732 20.9469C9.89532 22.927 9.81732 24.9153 12.2581 27.0659C12.8481 27.9658 11.0581 28.6158 10.4882 27.9658C9.12302 26.3859 8.55911 24.6458 8.5232 22.8142C8.4822 20.7143 8.96125 18.2334 9.96132 15.3837C7.33039 17.2538 5.76226 19.1632 5.25958 21.1021C4.91859 22.4121 4.72176 25.1539 6.32654 26.7526C6.62755 27.0527 6.52255 27.5127 6.01352 28.1427C5.59362 28.6325 5.0985 28.5728 4.52855 27.9628L4.53165 27.9684Z" fill="#CBA465" data-v-13356ded=""></path> <path fill-rule="evenodd" clip-rule="evenodd" d="M188.372 25.7008C187.232 26.301 186.118 26.6109 185.023 26.6109C182.861 26.6109 181.149 26.0009 179.886 24.771C178.623 23.551 177.991 21.9209 177.991 19.8841C177.991 17.879 178.681 16.2452 180.061 14.982C181.39 13.7681 183.049 13.1611 185.039 13.1611C186.334 13.1608 187.437 13.4502 188.351 14.0292V15.9171C187.397 15.0599 186.234 14.6313 184.86 14.6313C183.377 14.6313 182.147 15.0962 181.173 16.0263C180.152 17.0003 179.642 18.2872 179.642 19.8852C179.642 21.5063 180.152 22.8003 181.173 23.7743C182.137 24.6844 183.36 25.1445 184.843 25.1445C186.16 25.1445 187.335 24.6943 188.37 23.7846L188.372 25.7008Z" fill="black" data-v-13356ded=""></path> <path fill-rule="evenodd" clip-rule="evenodd" d="M204.586 26.4567H202.786L200.178 20.7874H199.968V26.2451H198.558V13.3341L200.288 13.3304C201.288 13.3304 202.358 13.7889 202.928 14.4284C203.498 15.0675 203.778 15.8245 203.778 16.9795C203.778 17.9055 203.738 18.2766 203.368 18.9286C202.978 19.6266 202.438 20.0526 201.748 20.4876L204.608 26.2439L204.586 26.4567ZM202.476 17.2119C202.476 15.6718 201.346 14.9019 200.686 14.9019H200.006V19.5809H200.786C201.346 19.5809 202.476 18.791 202.476 17.2131V17.2119Z" fill="black" data-v-13356ded=""></path> <path fill-rule="evenodd" clip-rule="evenodd" d="M206.908 24.9312H210.878V26.4013H205.257V13.4858H206.908V24.9312Z" fill="black" data-v-13356ded=""></path> <path fill-rule="evenodd" clip-rule="evenodd" d="M223.937 20.0315C223.937 21.8524 223.247 23.4293 221.887 24.7597C220.517 26.0897 218.897 26.7598 217.015 26.7598C215.135 26.7598 213.505 26.0897 212.143 24.7597C210.773 23.4297 210.093 21.8524 210.093 20.0315C210.093 18.2105 210.773 16.6344 212.143 15.3033C213.503 13.9721 215.133 13.3074 217.015 13.3074C218.895 13.3071 220.515 13.9725 221.887 15.3033C223.247 16.6344 223.937 18.2101 223.937 20.0315ZM222.307 20.0202C222.307 18.5503 221.797 17.3122 220.777 16.3072C219.767 15.3022 218.517 14.7991 217.037 14.7991C215.547 14.7991 214.297 15.3022 213.287 16.3072C212.277 17.3122 211.767 18.5503 211.767 20.0202C211.767 21.49 212.277 22.7282 213.287 23.7381C214.297 24.7382 215.547 25.2381 217.037 25.2381C218.517 25.2381 219.767 24.7382 220.777 23.7381C221.797 22.7282 222.307 21.49 222.307 20.0202Z" fill="black" data-v-13356ded=""></path> <path fill-rule="evenodd" clip-rule="evenodd" d="M197.442 26.4567H195.993L195.003 23.2266H191.663L190.663 26.4567H189.189L193.29 13.0052L197.442 26.4567ZM194.403 21.7587L193.283 18.3027L192.163 21.7587H194.403Z" fill="black" data-v-13356ded=""></path> <path fill-rule="evenodd" clip-rule="evenodd" d="M82.0913 26.0787H80.7212L79.7711 22.9338H76.611L75.6608 26.0787H74.307L78.1924 12.9978L82.0913 26.0787ZM79.2015 21.5092L78.1515 18.1482L77.0914 21.5092H79.2015Z" fill="black" data-v-13356ded=""></path> <path fill-rule="evenodd" clip-rule="evenodd" d="M73.3984 26.0788H71.4516L67.7087 20.7572H67.0099V26.0788H65.4047L65.4046 13.5005L67.8745 13.5035C69.2945 13.5035 70.4076 13.8145 71.2145 14.4363C72.0214 15.0572 72.4243 15.9304 72.4243 17.0544C72.4243 17.9554 72.1643 18.7246 71.6435 19.3595C71.0886 20.0383 70.3206 20.4534 69.3383 20.6057L73.3975 26.0821L73.3984 26.0788ZM70.9444 17.0722C70.9444 15.5732 69.8245 14.824 67.5844 14.824H67.0552V19.3784H67.7541C69.9001 19.3784 70.9731 18.6093 70.9731 17.0733L70.9444 17.0722Z" fill="black" data-v-13356ded=""></path> <path fill-rule="evenodd" clip-rule="evenodd" d="M90.822 19.6535C90.822 21.6026 90.0321 23.1424 88.862 24.2608C87.6918 25.3709 86.7621 25.5409 85.5719 25.8108L83.0396 26.1888V13.6105C83.8197 13.6294 84.3795 13.6686 84.7196 13.7287C86.8097 14.09 88.1998 14.7046 88.8884 15.3078C90.1784 16.4368 90.8285 17.969 90.8285 19.9038L90.822 19.6535ZM89.2422 19.6611C89.2422 18.1081 88.7221 16.9141 87.6922 16.0769C87.0021 15.5198 85.9922 15.1019 84.6421 14.8229V24.5326C85.892 24.3527 86.9121 23.9425 87.6922 23.2924C88.8522 22.3082 89.2422 21.2504 89.2422 19.6596V19.6611Z" fill="black" data-v-13356ded=""></path> <path fill-rule="evenodd" clip-rule="evenodd" d="M92.3696 13.3534H94.0097V25.9312H92.3696V13.3534Z" fill="black" data-v-13356ded=""></path> <path fill-rule="evenodd" clip-rule="evenodd" d="M108.775 19.6535C108.775 21.4246 108.115 22.9527 106.785 24.2532C105.465 25.5432 103.885 26.1933 102.064 26.1933C100.234 26.1933 98.6642 25.5432 97.336 24.2532C96.0162 22.9531 95.356 21.4253 95.356 19.6535C95.356 17.8824 96.0159 16.3495 97.336 15.0539C98.6661 13.7598 100.236 13.1127 102.064 13.1127C103.884 13.1124 105.464 13.7598 106.785 15.0539C108.115 16.348 108.775 17.8809 108.775 19.6535ZM107.195 19.6422C107.195 18.212 106.705 17.0094 105.715 16.0313C104.735 15.0543 103.515 14.5652 102.085 14.5652C100.645 14.5652 99.4352 15.0543 98.445 16.0313C97.4649 17.0094 96.9649 18.2124 96.9649 19.6422C96.9649 21.0724 97.4649 22.275 98.445 23.2512C99.4348 24.2313 100.645 24.7212 102.085 24.7212C103.515 24.7212 104.735 24.2313 105.715 23.2512C106.705 22.2754 107.195 21.0724 107.195 19.6422Z" fill="black" data-v-13356ded=""></path> <path fill-rule="evenodd" clip-rule="evenodd" d="M117.014 25.7812L119.396 12.8503L124.086 22.561L128.775 12.8503L131.155 25.7812H129.495L128.095 17.5746L124.086 26.0512L120.082 17.5746L118.677 25.7812H117.014Z" fill="black" data-v-13356ded=""></path> <path fill-rule="evenodd" clip-rule="evenodd" d="M145.663 19.6535C145.663 21.4416 145.003 22.9886 143.663 24.2911C142.333 25.601 140.753 26.2511 138.912 26.2511C137.082 26.2511 135.492 25.601 134.161 24.2911C132.831 22.9879 132.161 21.4408 132.161 19.6535C132.161 17.8654 132.831 16.3185 134.161 15.0123C135.491 13.7053 137.081 13.0522 138.912 13.0522C140.752 13.0522 142.332 13.7057 143.663 15.0123C145.003 16.3192 145.663 17.8662 145.663 19.6535ZM144.083 19.6422C144.083 18.1992 143.583 16.9841 142.593 15.9973C141.593 15.0104 140.373 14.5164 138.933 14.5164C137.483 14.5164 136.263 15.0104 135.273 15.9973C134.283 16.9841 133.793 18.1992 133.793 19.6422C133.793 21.0852 134.283 22.3011 135.273 23.2902C136.263 24.2703 137.483 24.7703 138.933 24.7703C140.373 24.7703 141.593 24.2703 142.593 23.2902C143.583 22.3011 144.083 21.0852 144.083 19.6422Z" fill="black" data-v-13356ded=""></path> <path fill-rule="evenodd" clip-rule="evenodd" d="M162.917 14.6755H159.737V25.9312H158.127V14.6755H154.947V13.2277H162.917V14.6755Z" fill="black" data-v-13356ded=""></path> <path fill-rule="evenodd" clip-rule="evenodd" d="M170.327 19.6768H165.167V24.4811H170.488V25.9312H163.557V13.2277H170.508V14.6755H165.167V18.2297H170.327V19.6768Z" fill="black" data-v-13356ded=""></path> <path fill-rule="evenodd" clip-rule="evenodd" d="M153.656 26.0512L148.336 18.2387V25.7812H146.846V12.8503L152.166 21.1439V13.121H153.656V26.0512Z" fill="black" data-v-13356ded=""></path> <path d="M65 33.5002H66.6859V44H68V32H65.698L65 33.5002Z" fill="#231F20" data-v-13356ded=""></path> <path d="M75.9998 42.5475C73.5354 42.5475 71.5304 40.5074 71.5304 37.9999C71.5304 35.4916 73.5354 33.4514 75.9998 33.4514C78.4647 33.4514 80.4699 35.4916 80.4699 37.9999C80.4699 40.5074 78.4647 42.5475 75.9998 42.5475V42.5475ZM75.9998 32C72.6915 32 70 34.6984 70 38.0149C70 41.3148 72.6915 44 75.9998 44C79.3086 44 82 41.3148 82 38.0149C82 34.6984 79.3086 32 75.9998 32" fill="#231F20" data-v-13356ded=""></path> <path d="M89 35.5483C89 33.5586 87.5363 32 85.6673 32C83.8411 32 82.4315 33.5899 82.3892 35.6977L82.3861 35.8431H83.7742L83.7773 35.7045C83.8035 34.3921 84.598 33.4755 85.708 33.4755C86.7753 33.4755 87.6114 34.3926 87.6114 35.5633C87.6114 36.1946 87.3952 36.794 86.9514 37.3966L82 44H89V42.5241H84.8436L88.1978 38.0698C88.7374 37.3664 89 36.5422 89 35.5483Z" fill="#231F20" data-v-13356ded=""></path> <path d="M91 45.6233L92.1068 46L94 42.424L92.5543 42L91 45.6233" fill="#231F20" data-v-13356ded=""></path> <path d="M94 33.5002H96.2479V44H98V32H94.9306L94 33.5002Z" fill="#231F20" data-v-13356ded=""></path> <path d="M104.107 32.9232H106V32H103V40H104.107V36.3606H105.812V35.4379H104.107V32.9232Z" fill="#231F20" data-v-13356ded=""></path> <path d="M111.181 32H110.152L109.392 35.5226L109.041 37.4431L109.006 37.772H108.982L107.731 32H106.725L106 40H107.111L107.45 34.4829H107.474L108.608 40H109.415L110.327 35.6285L110.526 34.4829H110.55L110.573 35.5335L110.644 37.0186L110.854 40H112L111.181 32Z" fill="#231F20" data-v-13356ded=""></path></g> <defs data-v-13356ded=""><clipPath id="clip0_3_464" data-v-13356ded=""><rect width="224" height="47" fill="white" data-v-13356ded=""></rect></clipPath></defs></svg>